# Blender v2.76 (sub 0) OBJ File: ''
# www.blender.org
v -1.381112 1.705271 3.832814
v -1.381112 1.705271 2.361463
v -1.381112 3.410887 2.361463
v -1.381112 3.410887 3.832814
v -5.798580 0.610594 -3.960454
v -9.899725 0.610594 -4.681346
v -9.899725 0.300519 -4.681346
v -5.744897 0.610594 -4.265847
v -9.846045 0.610594 -4.986741
v -5.744897 0.300519 -4.265847
v -9.846045 0.300519 -4.986741
v -5.798580 0.300519 -3.960454
v -12.172155 3.027404 0.112576
v -12.198040 3.027404 0.368091
v -13.054626 -0.312299 0.281317
v -12.445468 3.091517 0.343028
v -13.302053 -0.248188 0.256250
v -12.419583 3.091517 0.087512
v -13.276169 -0.248188 0.000737
v -13.028742 -0.312299 0.025801
v -9.660293 0.000505 -5.128452
v -5.497756 0.000505 -5.017188
v -5.497756 -0.309570 -5.017188
v -9.668579 0.000505 -4.818487
v -5.506042 0.000505 -4.707222
v -9.668579 -0.309570 -4.818487
v -5.506042 -0.309570 -4.707222
v -9.660293 -0.309570 -5.128452
v -7.913831 0.000505 -4.333946
v -12.070324 0.000505 -4.584241
v -12.070324 -0.309570 -4.584241
v -7.895192 0.000505 -4.643459
v -12.051687 0.000505 -4.893757
v -7.895192 -0.309570 -4.643459
v -12.051687 -0.309570 -4.893757
v -7.913831 -0.309570 -4.333946
v -7.997655 1.705270 4.994009
v -7.997655 3.410886 4.994009
v -9.469003 3.410886 4.994009
v -9.469003 1.705270 4.994009
v 5.097370 -0.305975 10.458373
v 5.097370 -0.305966 -9.656124
v -20.033012 -0.305966 -9.656124
v -20.033012 -0.305975 10.458373
v -10.843241 0.000505 -3.888303
v -6.695943 0.000505 -4.261164
v -6.695943 -0.309571 -4.261164
v -10.815475 0.000505 -3.579473
v -6.668178 0.000505 -3.952333
v -10.815475 -0.309571 -3.579473
v -6.668178 -0.309571 -3.952333
v -10.843241 -0.309571 -3.888303
v -12.192049 7.215373 3.810153
v -12.192049 5.996615 5.250308
v -10.808193 5.996615 5.250311
v -1.121196 3.399680 3.810155
v -1.121199 7.215373 3.810159
v -1.121199 5.996615 5.250313
v -12.192049 3.993951 5.250310
v -12.192045 3.399681 -1.950471
v -12.192045 7.215374 -1.950467
v -12.192045 5.996616 -3.390626
v -10.808187 -0.374499 -3.390627
v -12.192045 -0.374499 -3.390629
v -12.192045 2.300618 -3.390629
v -12.192049 8.434134 2.369998
v -12.192049 9.652895 0.929846
v -12.192045 3.993952 0.929842
v -1.121196 8.434134 -0.510312
v -1.121196 9.652895 0.929849
v -1.121196 3.993952 0.929845
v -10.808191 8.434134 -0.510312
v -12.192045 8.434134 -0.510315
v -12.192049 3.399680 3.810153
v -12.192049 3.399680 2.369997
v -1.121196 8.434134 2.370001
v -1.121196 3.399680 2.370000
v -10.808191 8.434134 2.369998
v -10.808191 7.215373 3.810153
v -10.808191 7.215374 -1.950467
v -1.121193 5.996616 -3.390623
v -1.121193 7.215374 -1.950467
v -1.121193 3.399681 -1.950468
v -1.121196 3.399681 -0.510313
v -12.192045 3.399681 -0.510316
v -12.192045 1.706346 -0.510316
v -12.192045 1.706346 -1.950471
v -12.192045 -0.374499 -1.950471
v -12.192045 -0.374500 0.929842
v -12.192045 2.300617 0.929842
v -1.121193 1.706346 -1.950468
v -1.121196 1.706346 -0.510313
v -1.121196 -0.374500 -0.510314
v -1.121196 -0.374499 -3.390627
v -1.121193 2.300618 -3.390626
v -1.121196 1.706345 2.370000
v -1.121196 1.706345 3.810155
v -1.121196 -0.374500 3.810155
v -1.121196 -0.374500 0.929842
v -1.121196 2.300617 0.929842
v -12.192049 1.706345 3.810152
v -12.192049 1.706345 2.369997
v -12.192045 -0.374500 2.369997
v -12.192049 -0.374501 5.250310
v -12.192049 2.300616 5.250310
v -10.808187 2.300618 -3.390626
v -12.192045 3.993953 -3.390629
v -10.808191 2.300616 5.250310
v -1.121196 2.300616 5.250313
v -1.121196 -0.374501 5.250310
v -10.808187 3.993953 -3.390626
v -11.916769 3.399680 2.369997
v -11.916769 3.399680 3.810153
v -1.396475 1.706346 -1.950468
v -1.121193 3.993953 -3.390626
v -1.396475 1.706345 2.370000
v -1.396475 1.706345 3.810155
v -11.916767 1.706345 2.369997
v -10.808191 3.993951 5.250310
v -1.121199 3.993951 5.250313
v -2.950242 3.302825 5.250313
v -5.272766 3.302825 5.250310
v -6.656624 3.993951 5.250310
v -6.656624 2.300616 5.250310
v -8.040479 3.399680 5.250310
v -9.424335 1.706345 5.250310
v -9.424335 1.706345 4.984830
v -9.424335 3.399680 4.984830
v -9.424335 3.399680 5.250310
v -2.505048 3.993953 -3.390626
v -2.505048 5.996616 -3.390623
v -3.888906 3.993953 -3.390626
v -3.888906 5.996616 -3.390623
v -5.272763 3.993953 -3.390626
v -5.272763 5.996616 -3.390623
v -6.656621 3.993953 -3.390626
v -6.656621 5.996616 -3.390626
v -8.040476 3.993953 -3.390626
v -8.040476 5.996616 -3.390626
v -9.424334 3.993953 -3.390626
v -9.424334 5.996616 -3.390626
v -10.808187 5.996616 -3.390626
v -2.950240 2.300616 5.250310
v -2.950240 -0.374501 5.250310
v -5.272766 2.300616 5.250310
v -6.656621 -0.374501 5.250310
v -8.040479 1.706345 5.250310
v -9.424334 -0.374501 5.250310
v -10.808191 -0.374501 5.250310
v -2.505051 2.300618 -3.390626
v -3.888906 2.300618 -3.390626
v -5.272763 2.300618 -3.390626
v -6.656621 2.300618 -3.390626
v -8.040476 2.300618 -3.390626
v -9.424334 2.300618 -3.390626
v -2.505051 7.215374 -1.950467
v -2.505051 8.434134 -0.510312
v -3.888906 7.215374 -1.950467
v -3.888909 8.434134 -0.510312
v -5.272763 7.215374 -1.950467
v -5.272763 8.434134 -0.510312
v -6.656621 7.215374 -1.950467
v -6.656621 8.434134 -0.510312
v -8.040476 7.215374 -1.950467
v -8.040479 8.434134 -0.510312
v -9.424334 7.215374 -1.950467
v -9.424334 8.434134 -0.510312
v -2.505054 8.434134 2.370001
v -2.505054 7.215373 3.810156
v -3.888909 8.434134 2.370001
v -3.888911 7.215373 3.810156
v -5.272766 8.434134 2.370001
v -5.272766 7.215373 3.810156
v -6.656621 8.434134 2.370001
v -6.656624 7.215373 3.810156
v -8.040479 8.434134 2.369998
v -8.040479 7.215373 3.810156
v -9.424335 8.434134 2.369998
v -9.424335 7.215373 3.810156
v -2.505054 9.652895 0.929849
v -3.888909 9.652895 0.929849
v -5.272766 9.652895 0.929846
v -6.656621 9.652895 0.929846
v -8.040479 9.652895 0.929846
v -9.424334 9.652895 0.929846
v -10.808191 9.652895 0.929846
v -2.505051 -0.374499 -3.390627
v -3.888909 -0.374499 -3.390627
v -5.272763 -0.374499 -3.390627
v -6.656621 -0.374499 -3.390627
v -8.040476 -0.374499 -3.390627
v -9.424334 -0.374499 -3.390627
v -2.505054 5.996615 5.250313
v -3.888911 5.996615 5.250313
v -5.272766 5.996615 5.250311
v -6.656624 5.996615 5.250311
v -8.040482 5.996615 5.250311
v -9.424335 5.996615 5.250311
v -5.272766 -0.374501 5.250310
v -5.272766 -0.374501 4.919766
v -5.272766 2.300616 4.919766
v -2.950240 2.300616 4.919766
v -5.272766 3.302825 4.919767
v -2.950242 3.302825 4.919770
v -3.888911 3.302825 4.919767
v -3.888911 3.302825 5.250313
v -11.916767 3.399681 -0.510316
v -11.916767 3.399681 -1.950471
v -11.916767 1.706346 -1.950471
v -1.396475 3.399681 -1.950468
v -1.396475 3.399681 -0.510313
v -1.396475 1.706346 -0.510313
v -1.396475 3.399680 2.370000
v -1.396478 3.399680 3.810158
v -11.916767 1.706346 -0.510316
v -11.916767 1.706345 3.810152
v -8.040479 3.399680 4.984830
v -8.040479 1.706345 4.984830
v -12.192045 -0.374500 -0.510316
v -1.121196 -0.374499 -1.950471
v -1.121196 -0.374500 2.369997
v -12.192045 -0.374500 3.810152
v -8.040479 -0.374501 5.250310
v -2.950240 -0.374501 4.919766
v -2.939132 -0.370324 4.942791
v -2.939132 3.420658 4.942791
v -5.278047 3.420658 4.942791
v -5.278047 -0.370324 4.942791
v -5.763010 0.307415 -4.860730
v -9.678257 0.307414 -3.443012
v -9.678257 -0.002661 -3.443012
v -5.868580 0.307415 -5.152281
v -9.783827 0.307414 -3.734561
v -5.868580 -0.002661 -5.152281
v -9.783827 -0.002661 -3.734561
v -5.763010 -0.002661 -4.860730
v -1.381112 1.705272 -1.956568
v -1.381112 3.410887 -1.956567
v -1.381112 3.410887 -0.485219
v -1.381112 1.705271 -0.485219
v -11.931549 1.705272 -1.959736
v -11.931549 1.705271 -0.488388
v -11.931549 3.410887 -0.488387
v -11.931549 3.410887 -1.959735
v -11.931549 1.705271 3.843199
v -11.931549 3.410887 3.843199
v -11.931549 3.410887 2.371849
v -11.931549 1.705271 2.371848
v -10.844185 0.307415 -4.319792
v -6.788076 0.307415 -5.261629
v -6.788076 -0.002661 -5.261629
v -10.774054 0.307414 -4.017752
v -6.717941 0.307415 -4.959589
v -10.774054 -0.002661 -4.017752
v -6.717941 -0.002661 -4.959589
v -10.844185 -0.002661 -4.319792
v -0.981111 0.302592 2.804921
v -0.126698 0.302593 -1.270503
v -0.126698 -0.007482 -1.270503
v -0.677633 0.302592 2.868546
v 0.176780 0.302593 -1.206877
v -0.677633 -0.007483 2.868546
v 0.176780 -0.007482 -1.206877
v -0.981111 -0.007483 2.804921
v -0.721628 9.700430 0.886992
v -0.721628 9.636485 0.941314
v -0.721628 5.406981 -4.037327
v -12.590237 9.700430 0.886989
v -12.590237 9.636485 0.941312
v -12.590235 5.470926 -4.091652
v -12.590235 5.406981 -4.037327
v -0.721628 5.470926 -4.091650
v -0.845350 0.000504 2.284443
v -0.845350 0.000504 -1.879581
v -0.845350 -0.309571 -1.879581
v -0.535275 0.000504 2.284443
v -0.535275 0.000504 -1.879581
v -0.535275 -0.309572 2.284443
v -0.535275 -0.309571 -1.879581
v -0.845350 -0.309572 2.284443
v -1.139992 3.028272 -2.621393
v -0.279021 -0.311433 -2.621393
v -0.279021 -0.311433 -2.364569
v -0.891300 3.092383 -2.621393
v -0.030331 -0.247320 -2.621393
v -0.891300 3.092383 -2.364568
v -0.030331 -0.247320 -2.364569
v -1.139992 3.028272 -2.364568
v -0.120571 0.000504 -0.885739
v 0.252289 0.000503 3.261559
v 0.252289 -0.309572 3.261559
v -0.429401 0.000504 -0.857973
v -0.056541 0.000503 3.289325
v -0.429401 -0.309571 -0.857973
v -0.056541 -0.309572 3.289325
v -0.120571 -0.309571 -0.885739
v -12.590237 5.470924 5.960759
v -12.590237 9.700430 0.982127
v -12.590237 9.636485 0.927805
v -0.721628 9.700430 0.982127
v -0.721628 9.636485 0.927805
v -0.721628 5.470924 5.960759
v -0.721628 5.406980 5.906436
v -12.590237 5.406980 5.906436
vn 1.000000 -0.000000 0.000000
vn -0.173100 0.000000 0.984900
vn -0.000000 1.000000 0.000000
vn 0.173100 0.000000 -0.984900
vn 0.000000 -1.000000 -0.000000
vn -0.984900 0.000000 -0.173100
vn 0.984900 0.000000 0.173100
vn 0.963400 -0.249600 0.097600
vn -0.100800 -0.000000 0.994900
vn -0.963400 0.249600 -0.097600
vn 0.100800 0.000000 -0.994900
vn -0.248400 -0.968300 -0.025200
vn 0.248400 0.968300 0.025200
vn 0.026700 0.000000 -0.999600
vn -0.026700 0.000000 0.999600
vn 0.999600 0.000000 0.026700
vn -0.999600 0.000000 -0.026700
vn -0.060100 0.000000 0.998200
vn 0.060100 0.000000 -0.998200
vn -0.998200 0.000000 -0.060100
vn 0.998200 0.000000 0.060100
vn 0.000000 0.000000 1.000000
vn -0.089500 0.000000 -0.996000
vn 0.089500 0.000000 0.996000
vn 0.996000 0.000000 -0.089500
vn -0.996000 0.000000 0.089500
vn -0.000000 0.763300 0.646000
vn -1.000000 0.000000 0.000000
vn 0.000000 0.000000 -1.000000
vn 0.000000 0.763300 -0.646000
vn 0.340500 0.000000 0.940300
vn -0.340500 0.000000 -0.940300
vn -0.940300 0.000000 0.340500
vn 0.940300 0.000000 -0.340500
vn -0.226200 0.000000 -0.974100
vn 0.226200 0.000000 0.974100
vn 0.974100 0.000000 -0.226200
vn -0.974100 0.000000 0.226200
vn -0.978700 0.000000 -0.205200
vn 0.978700 0.000000 0.205200
vn 0.205200 0.000000 -0.978700
vn -0.205200 0.000000 0.978700
vn -0.000000 0.647400 0.762100
vn 0.000000 -0.647400 -0.762100
vn 0.000000 -0.647500 -0.762100
vn -0.000000 -0.762100 0.647400
vn 0.000000 0.762100 -0.647400
vn -0.968300 -0.249600 0.000000
vn 0.968300 0.249600 0.000000
vn 0.249600 -0.968300 -0.000000
vn -0.249600 0.968300 0.000000
vn 0.000000 0.647400 -0.762100
vn 0.000000 -0.647400 0.762100
vn 0.000000 -0.762100 -0.647400
vn 0.000000 0.762100 0.647400
s 1
f 1//1 2//1 3//1
f 4//1 1//1 3//1
f 5//2 6//2 7//2
f 8//3 9//3 6//3
f 10//4 11//4 9//4
f 12//5 7//5 11//5
f 6//6 9//6 11//6
f 10//7 8//7 5//7
f 12//2 5//2 7//2
f 5//3 8//3 6//3
f 8//4 10//4 9//4
f 10//5 12//5 11//5
f 7//6 6//6 11//6
f 12//7 10//7 5//7
f 13//8 14//8 15//8
f 16//9 17//9 15//9
f 16//10 18//10 19//10
f 18//11 13//11 20//11
f 15//12 17//12 19//12
f 18//13 16//13 14//13
f 20//8 13//8 15//8
f 14//9 16//9 15//9
f 17//10 16//10 19//10
f 19//11 18//11 20//11
f 20//12 15//12 19//12
f 13//13 18//13 14//13
f 21//14 22//14 23//14
f 21//3 24//3 25//3
f 26//15 27//15 25//15
f 28//5 23//5 27//5
f 22//16 25//16 27//16
f 24//17 21//17 28//17
f 28//14 21//14 23//14
f 22//3 21//3 25//3
f 24//15 26//15 25//15
f 26//5 28//5 27//5
f 23//16 22//16 27//16
f 26//17 24//17 28//17
f 29//18 30//18 31//18
f 32//3 33//3 30//3
f 34//19 35//19 33//19
f 34//5 36//5 31//5
f 30//20 33//20 35//20
f 34//21 32//21 29//21
f 36//18 29//18 31//18
f 29//3 32//3 30//3
f 32//19 34//19 33//19
f 35//5 34//5 31//5
f 31//20 30//20 35//20
f 36//21 34//21 29//21
f 37//22 38//22 39//22
f 40//22 37//22 39//22
f 41//3 42//3 43//3
f 44//3 41//3 43//3
f 45//23 46//23 47//23
f 48//3 49//3 46//3
f 50//24 51//24 49//24
f 50//5 52//5 47//5
f 46//25 49//25 51//25
f 48//26 45//26 52//26
f 52//23 45//23 47//23
f 45//3 48//3 46//3
f 48//24 50//24 49//24
f 51//5 50//5 47//5
f 47//25 46//25 51//25
f 50//26 48//26 52//26
f 53//27 54//27 55//27
f 56//1 57//1 58//1
f 55//22 54//22 59//22
f 60//28 61//28 62//28
f 63//29 64//29 65//29
f 66//28 67//28 68//28
f 69//1 70//1 71//1
f 72//30 73//30 67//30
f 54//28 53//28 74//28
f 53//28 66//28 75//28
f 71//1 70//1 76//1
f 77//1 76//1 57//1
f 67//27 66//27 78//27
f 66//27 53//27 79//27
f 62//30 61//30 80//30
f 80//30 61//30 73//30
f 81//1 82//1 83//1
f 82//1 69//1 84//1
f 68//28 67//28 73//28
f 85//28 73//28 61//28
f 86//28 87//28 88//28
f 89//28 90//28 86//28
f 91//1 92//1 93//1
f 94//1 95//1 91//1
f 96//1 97//1 98//1
f 99//1 100//1 96//1
f 101//28 102//28 103//28
f 104//28 105//28 101//28
f 92//1 100//1 99//1
f 102//28 90//28 89//28
f 106//29 65//29 107//29
f 87//28 65//28 64//28
f 108//22 105//22 104//22
f 97//1 109//1 110//1
f 111//29 107//29 62//29
f 75//5 112//5 113//5
f 90//28 68//28 85//28
f 92//3 91//3 114//3
f 95//1 115//1 83//1
f 96//3 116//3 117//3
f 100//1 71//1 77//1
f 102//22 118//22 112//22
f 105//28 59//28 74//28
f 84//1 71//1 100//1
f 75//28 68//28 90//28
f 60//28 107//28 65//28
f 119//22 59//22 105//22
f 56//1 120//1 109//1
f 109//22 120//22 121//22
f 122//22 123//22 124//22
f 124//22 123//22 125//22
f 126//1 127//1 128//1
f 129//22 119//22 108//22
f 115//29 130//29 131//29
f 130//29 132//29 133//29
f 132//29 134//29 135//29
f 134//29 136//29 137//29
f 136//29 138//29 139//29
f 138//29 140//29 141//29
f 140//29 111//29 142//29
f 109//22 143//22 144//22
f 145//22 124//22 146//22
f 146//22 124//22 147//22
f 147//22 126//22 148//22
f 126//22 108//22 149//22
f 95//29 150//29 130//29
f 150//29 151//29 132//29
f 151//29 152//29 134//29
f 152//29 153//29 136//29
f 153//29 154//29 138//29
f 154//29 155//29 140//29
f 155//29 106//29 111//29
f 156//30 157//30 69//30
f 158//30 159//30 157//30
f 160//30 161//30 159//30
f 162//30 163//30 161//30
f 164//30 165//30 163//30
f 166//30 167//30 165//30
f 80//30 72//30 167//30
f 131//30 156//30 82//30
f 133//30 158//30 156//30
f 135//30 160//30 158//30
f 135//30 137//30 162//30
f 139//30 164//30 162//30
f 139//30 141//30 166//30
f 142//30 80//30 166//30
f 76//27 168//27 169//27
f 170//27 171//27 169//27
f 172//27 173//27 171//27
f 174//27 175//27 173//27
f 176//27 177//27 175//27
f 178//27 179//27 177//27
f 178//27 78//27 79//27
f 180//27 168//27 76//27
f 181//27 170//27 168//27
f 181//27 182//27 172//27
f 183//27 174//27 172//27
f 183//27 184//27 176//27
f 185//27 178//27 176//27
f 186//27 78//27 178//27
f 157//30 180//30 70//30
f 159//30 181//30 180//30
f 161//30 182//30 181//30
f 163//30 183//30 182//30
f 165//30 184//30 183//30
f 167//30 185//30 184//30
f 72//30 186//30 185//30
f 94//29 187//29 150//29
f 187//29 188//29 151//29
f 188//29 189//29 152//29
f 189//29 190//29 153//29
f 190//29 191//29 154//29
f 191//29 192//29 155//29
f 192//29 63//29 106//29
f 120//22 58//22 193//22
f 121//22 193//22 194//22
f 194//22 195//22 122//22
f 195//22 196//22 123//22
f 123//22 196//22 197//22
f 197//22 198//22 129//22
f 198//22 55//22 119//22
f 57//27 169//27 193//27
f 171//27 194//27 193//27
f 171//27 173//27 195//27
f 175//27 196//27 195//27
f 177//27 197//27 196//27
f 179//27 198//27 197//27
f 179//27 79//27 55//27
f 199//1 200//1 201//1
f 144//28 143//28 202//28
f 145//1 201//1 203//1
f 143//28 121//28 204//28
f 122//5 203//5 205//5
f 206//5 205//5 204//5
f 207//28 208//28 209//28
f 210//1 211//1 212//1
f 213//1 214//1 117//1
f 113//28 112//28 118//28
f 86//3 215//3 209//3
f 56//5 214//5 213//5
f 85//29 207//29 215//29
f 84//5 211//5 210//5
f 83//22 210//22 114//22
f 60//5 208//5 207//5
f 77//22 213//22 116//22
f 101//29 74//29 113//29
f 87//22 209//22 208//22
f 92//29 212//29 211//29
f 56//29 97//29 117//29
f 101//3 216//3 118//3
f 217//22 128//22 127//22
f 125//28 217//28 218//28
f 129//5 128//5 217//5
f 147//3 218//3 127//3
f 79//27 53//27 55//27
f 120//1 56//1 58//1
f 119//22 55//22 59//22
f 107//28 60//28 62//28
f 106//29 63//29 65//29
f 75//28 66//28 68//28
f 84//1 69//1 71//1
f 186//30 72//30 67//30
f 59//28 54//28 74//28
f 74//28 53//28 75//28
f 77//1 71//1 76//1
f 56//1 77//1 57//1
f 186//27 67//27 78//27
f 78//27 66//27 79//27
f 142//30 62//30 80//30
f 72//30 80//30 73//30
f 115//1 81//1 83//1
f 83//1 82//1 84//1
f 85//28 68//28 73//28
f 60//28 85//28 61//28
f 219//28 86//28 88//28
f 219//28 89//28 86//28
f 220//1 91//1 93//1
f 220//1 94//1 91//1
f 221//1 96//1 98//1
f 221//1 99//1 96//1
f 222//28 101//28 103//28
f 222//28 104//28 101//28
f 93//1 92//1 99//1
f 103//28 102//28 89//28
f 111//29 106//29 107//29
f 88//28 87//28 64//28
f 149//22 108//22 104//22
f 98//1 97//1 110//1
f 142//29 111//29 62//29
f 74//5 75//5 113//5
f 86//28 90//28 85//28
f 212//3 92//3 114//3
f 91//1 95//1 83//1
f 97//3 96//3 117//3
f 96//1 100//1 77//1
f 75//22 102//22 112//22
f 101//28 105//28 74//28
f 92//1 84//1 100//1
f 102//28 75//28 90//28
f 87//28 60//28 65//28
f 108//22 119//22 105//22
f 97//1 56//1 109//1
f 143//22 109//22 121//22
f 145//22 122//22 124//22
f 147//22 124//22 125//22
f 129//1 126//1 128//1
f 126//22 129//22 108//22
f 81//29 115//29 131//29
f 131//29 130//29 133//29
f 133//29 132//29 135//29
f 135//29 134//29 137//29
f 137//29 136//29 139//29
f 139//29 138//29 141//29
f 141//29 140//29 142//29
f 110//22 109//22 144//22
f 199//22 145//22 146//22
f 223//22 146//22 147//22
f 223//22 147//22 148//22
f 148//22 126//22 149//22
f 115//29 95//29 130//29
f 130//29 150//29 132//29
f 132//29 151//29 134//29
f 134//29 152//29 136//29
f 136//29 153//29 138//29
f 138//29 154//29 140//29
f 140//29 155//29 111//29
f 82//30 156//30 69//30
f 156//30 158//30 157//30
f 158//30 160//30 159//30
f 160//30 162//30 161//30
f 162//30 164//30 163//30
f 164//30 166//30 165//30
f 166//30 80//30 167//30
f 81//30 131//30 82//30
f 131//30 133//30 156//30
f 133//30 135//30 158//30
f 160//30 135//30 162//30
f 137//30 139//30 162//30
f 164//30 139//30 166//30
f 141//30 142//30 166//30
f 57//27 76//27 169//27
f 168//27 170//27 169//27
f 170//27 172//27 171//27
f 172//27 174//27 173//27
f 174//27 176//27 175//27
f 176//27 178//27 177//27
f 179//27 178//27 79//27
f 70//27 180//27 76//27
f 180//27 181//27 168//27
f 170//27 181//27 172//27
f 182//27 183//27 172//27
f 174//27 183//27 176//27
f 184//27 185//27 176//27
f 185//27 186//27 178//27
f 69//30 157//30 70//30
f 157//30 159//30 180//30
f 159//30 161//30 181//30
f 161//30 163//30 182//30
f 163//30 165//30 183//30
f 165//30 167//30 184//30
f 167//30 72//30 185//30
f 95//29 94//29 150//29
f 150//29 187//29 151//29
f 151//29 188//29 152//29
f 152//29 189//29 153//29
f 153//29 190//29 154//29
f 154//29 191//29 155//29
f 155//29 192//29 106//29
f 121//22 120//22 193//22
f 206//22 121//22 194//22
f 206//22 194//22 122//22
f 122//22 195//22 123//22
f 125//22 123//22 197//22
f 125//22 197//22 129//22
f 129//22 198//22 119//22
f 58//27 57//27 193//27
f 169//27 171//27 193//27
f 194//27 171//27 195//27
f 173//27 175//27 195//27
f 175//27 177//27 196//27
f 177//27 179//27 197//27
f 198//27 179//27 55//27
f 145//1 199//1 201//1
f 224//28 144//28 202//28
f 122//1 145//1 203//1
f 202//28 143//28 204//28
f 206//5 122//5 205//5
f 121//5 206//5 204//5
f 215//28 207//28 209//28
f 114//1 210//1 212//1
f 116//1 213//1 117//1
f 216//28 113//28 118//28
f 87//3 86//3 209//3
f 77//5 56//5 213//5
f 86//29 85//29 215//29
f 83//5 84//5 210//5
f 91//22 83//22 114//22
f 85//5 60//5 207//5
f 96//22 77//22 116//22
f 216//29 101//29 113//29
f 60//22 87//22 208//22
f 84//29 92//29 211//29
f 214//29 56//29 117//29
f 102//3 101//3 118//3
f 218//22 217//22 127//22
f 147//28 125//28 218//28
f 125//5 129//5 217//5
f 126//3 147//3 127//3
f 225//22 226//22 227//22
f 228//22 225//22 227//22
f 229//31 230//31 231//31
f 229//3 232//3 233//3
f 234//32 235//32 233//32
f 236//5 231//5 235//5
f 230//33 233//33 235//33
f 234//34 232//34 229//34
f 236//31 229//31 231//31
f 230//3 229//3 233//3
f 232//32 234//32 233//32
f 234//5 236//5 235//5
f 231//33 230//33 235//33
f 236//34 234//34 229//34
f 237//1 238//1 239//1
f 240//1 237//1 239//1
f 241//28 242//28 243//28
f 244//28 241//28 243//28
f 245//28 246//28 247//28
f 248//28 245//28 247//28
f 249//35 250//35 251//35
f 249//3 252//3 253//3
f 254//36 255//36 253//36
f 256//5 251//5 255//5
f 250//37 253//37 255//37
f 252//38 249//38 256//38
f 256//35 249//35 251//35
f 250//3 249//3 253//3
f 252//36 254//36 253//36
f 254//5 256//5 255//5
f 251//37 250//37 255//37
f 254//38 252//38 256//38
f 257//39 258//39 259//39
f 257//3 260//3 261//3
f 262//40 263//40 261//40
f 264//5 259//5 263//5
f 258//41 261//41 263//41
f 260//42 257//42 264//42
f 264//39 257//39 259//39
f 258//3 257//3 261//3
f 260//40 262//40 261//40
f 262//5 264//5 263//5
f 259//41 258//41 263//41
f 262//42 260//42 264//42
f 265//1 266//1 267//1
f 268//43 269//43 266//43
f 268//28 270//28 271//28
f 272//44 267//44 271//45
f 266//46 269//46 271//46
f 270//47 268//47 265//47
f 272//1 265//1 267//1
f 265//43 268//43 266//43
f 269//28 268//28 271//28
f 270//45 272//44 271//45
f 267//46 266//46 271//46
f 272//47 270//47 265//47
f 273//28 274//28 275//28
f 276//3 277//3 274//3
f 278//1 279//1 277//1
f 280//5 275//5 279//5
f 274//29 277//29 279//29
f 276//22 273//22 280//22
f 280//28 273//28 275//28
f 273//3 276//3 274//3
f 276//1 278//1 277//1
f 278//5 280//5 279//5
f 275//29 274//29 279//29
f 278//22 276//22 280//22
f 281//48 282//48 283//48
f 284//29 285//29 282//29
f 286//49 287//49 285//49
f 286//22 288//22 283//22
f 282//50 285//50 287//50
f 284//51 281//51 288//51
f 288//48 281//48 283//48
f 281//29 284//29 282//29
f 284//49 286//49 285//49
f 287//22 286//22 283//22
f 283//50 282//50 287//50
f 286//51 284//51 288//51
f 289//25 290//25 291//25
f 292//3 293//3 290//3
f 294//26 295//26 293//26
f 294//5 296//5 291//5
f 290//24 293//24 295//24
f 292//23 289//23 296//23
f 296//25 289//25 291//25
f 289//3 292//3 290//3
f 292//26 294//26 293//26
f 295//5 294//5 291//5
f 291//24 290//24 295//24
f 294//23 292//23 296//23
f 297//28 298//28 299//28
f 300//52 301//52 299//52
f 300//1 302//1 303//1
f 297//53 304//53 303//53
f 299//54 301//54 303//54
f 300//55 298//55 297//55
f 304//28 297//28 299//28
f 298//52 300//52 299//52
f 301//1 300//1 303//1
f 302//53 297//53 303//53
f 304//54 299//54 303//54
f 302//55 300//55 297//55